# xmcd
#
# Track frame offsets:
#	150
#	13611
#	27317
#	39387
#	54380
#	80045
#	95545
#	109194
#	122795
#	140557
#	158336
#	169793
#	183520
#	198948
#	213723
#	225483
#	239073
#	252503
#
# Disc length: 3550 seconds
#
# Revision: 0
# Processed by: cddbd v1.4PL0 Copyright (c) Steve Scherf et al.
# Submitted via: audiograbber 1.80
#
DISCID=f80ddc12
DTITLE=Louis Armstrong - High Society CD1
DYEAR=1900
DGENRE=
TTITLE0=High Society Calypso (Live)
TTITLE1=Sittin' In The Dark
TTITLE2=He's A Son Of The South
TTITLE3=My One And Only Love
TTITLE4=We Shall Overcome
TTITLE5=Basin Street Blues
TTITLE6=Everybody's Talking (Echoes)
TTITLE7=I Want A Little Girl
TTITLE8=Boy From New Orleans
TTITLE9=Ain't Misbeheavin'
TTITLE10=His Father Wore Long Hair
TTITLE11=I Gotta Right To Sing The Blues
TTITLE12=Sugar
TTITLE13=Back O' Town Blues
TTITLE14=Mahogany Hall Stomp
TTITLE15=Hobo, You Can't Ride This Train
TTITLE16=Fifty-Fifty Blues
TTITLE17=Rockin' Chain (Concert Version)
EXTD=
EXTT0=
EXTT1=
EXTT2=
EXTT3=
EXTT4=
EXTT5=
EXTT6=
EXTT7=
EXTT8=
EXTT9=
EXTT10=
EXTT11=
EXTT12=
EXTT13=
EXTT14=
EXTT15=
EXTT16=
EXTT17=
PLAYORDER=
